<?xml version="1.0" encoding="utf-8"?>
<svg viewBox="0 0 24 24" xmlns="http://www.w3.org/2000/svg">
  <g transform="matrix(1, 0, 0, 1, 1.01711, -0.612894)">
    <path d="M0 0h24v24H0z" fill="none"/>
    <path d="M 3.602 3.582 C 6.487 1.219 10.237 0.446 13.688 1.266 C 15.72 1.747 17.647 2.779 19.232 4.364 C 23.787 8.919 23.787 16.305 19.232 20.861 C 14.678 25.414 7.291 25.414 2.737 20.861 C -0.104 18.023 -1.285 13.923 -0.388 10.008 L -0.299 9.643 L 1.957 10.238 C 0.13 17.185 6.509 23.504 13.437 21.615 C 20.368 19.724 22.652 11.04 17.551 5.983 C 14.309 2.771 9.218 2.375 5.519 5.047 L 5.261 5.241 L 6.447 6.428 L 1.086 7.664 L 2.323 2.303 L 3.601 3.582 L 3.602 3.582 Z" style="fill: rgb(38, 70, 83); paint-order: fill;"/>
    <path d="M 11.983 6.613 L 11.983 8.613 L 14.483 8.613 L 14.483 10.613 L 8.983 10.613 C 8.598 10.612 8.357 11.029 8.549 11.362 C 8.622 11.49 8.748 11.579 8.893 11.605 L 8.983 11.613 L 12.983 11.613 C 14.908 11.613 16.11 13.696 15.148 15.363 C 14.701 16.137 13.876 16.613 12.983 16.613 L 11.983 16.613 L 11.983 18.613 L 9.983 18.613 L 9.983 16.613 L 7.483 16.613 L 7.483 14.613 L 12.983 14.613 C 13.368 14.614 13.609 14.197 13.417 13.864 C 13.344 13.736 13.218 13.647 13.073 13.621 L 12.983 13.613 L 8.983 13.613 C 7.058 13.613 5.856 11.53 6.818 9.863 C 7.265 9.089 8.09 8.613 8.983 8.613 L 9.983 8.613 L 9.983 6.613 L 11.983 6.613 Z" style="fill: rgb(233, 196, 106);"/>
  </g>
</svg>